<?xml version="1.0" encoding="utf-8"?><!DOCTYPE svg PUBLIC "-//W3C//DTD SVG 1.1//EN" "http://www.w3.org/Graphics/SVG/1.1/DTD/svg11.dtd"><svg version="1.1" xmlns="http://www.w3.org/2000/svg" xmlns:xlink="http://www.w3.org/1999/xlink" width="32" height="32" viewBox="0 0 32 32" data-tags="clipboard-list"><g fill="#444" transform="scale(0.03125 0.03125)"><path d="M416 160v-32.067c0-35.189 28.724-63.933 64.156-63.933h31.688c35.551 0 64.156 28.624 64.156 63.933v32.067h64.142c17.624 0 31.858 14.312 31.858 31.967v32.067c0 17.801-14.264 31.967-31.858 31.967h-288.283c-17.624 0-31.858-14.312-31.858-31.967v-32.067c0-17.801 14.264-31.967 31.858-31.967h64.142zM384 128h-31.912c-35.343 0-64.004 28.521-64.088 64h-32.083c-35.301 0-63.918 28.472-63.918 64.115v671.77c0 35.41 28.51 64.115 63.918 64.115h480.165c35.301 0 63.918-28.472 63.918-64.115v-671.77c0-35.41-28.51-64.115-63.918-64.115h-32.083c-0.084-35.361-28.645-64-64.088-64h-31.912c-0.029-53.024-43.207-96-96.296-96h-31.408c-53.165 0-96.267 42.82-96.296 96v0 0zM704 224h32.001c17.448 0 31.999 14.371 31.999 32.098v671.803c0 18.053-14.326 32.098-31.999 32.098h-480.003c-17.448 0-31.999-14.371-31.999-32.098v-671.803c0-18.053 14.326-32.098 31.999-32.098h32.001c0.084 35.361 28.645 64 64.088 64h287.823c35.343 0 64.004-28.521 64.088-64v0 0zM496 160c8.837 0 16-7.163 16-16s-7.163-16-16-16c-8.837 0-16 7.163-16 16s7.163 16 16 16v0zM448 448v32h256v-32h-256zM288 416h96v96h-96v-96zM320 448v32h32v-32h-32zM288 576h96v96h-96v-96zM320 608v32h32v-32h-32zM448 608v32h256v-32h-256zM288 736h96v96h-96v-96zM320 768v32h32v-32h-32zM448 768v32h256v-32h-256z" /></g></svg>