<?xml version="1.0" standalone="no"?>
<!DOCTYPE svg PUBLIC "-//W3C//DTD SVG 20010904//EN"
 "http://www.w3.org/TR/2001/REC-SVG-20010904/DTD/svg10.dtd">
<svg version="1.0" xmlns="http://www.w3.org/2000/svg"
 width="2000.000000pt" height="1380.000000pt" viewBox="0 0 2000.000000 1380.000000"
 preserveAspectRatio="xMidYMid meet">

<g transform="translate(0.000000,1380.000000) scale(0.100000,-0.100000)"
fill="#000000" stroke="none">
<path d="M6489 12138 c-19 -7 -24 -32 -13 -62 6 -15 337 -16 3659 -16 3644 0
3653 0 3658 20 3 11 3 29 0 40 -5 20 -16 20 -3645 22 -2001 2 -3648 0 -3659
-4z"/>
<path d="M6474 11976 c-3 -8 -4 -31 -2 -52 l3 -39 90 -5 90 -5 3 -45 c4 -60
17 -73 64 -67 51 7 67 -8 70 -68 l3 -50 52 -3 c38 -2 55 -8 61 -20 6 -13 8
-149 3 -209 -1 -7 -23 -13 -58 -15 l-58 -3 -3 -45 c-4 -55 -22 -72 -72 -64
-46 7 -58 -6 -62 -71 l-3 -50 -90 -5 -90 -5 0 -55 0 -55 3665 0 3665 0 3 43
c5 63 -7 72 -98 72 -88 0 -90 2 -90 76 0 48 -9 54 -78 52 -40 -2 -54 16 -47
58 7 40 -8 52 -70 56 l-50 3 -3 95 c-4 137 -3 140 62 140 60 0 70 11 61 64 -8
47 6 59 67 60 l53 1 5 55 5 55 80 3 c43 2 85 8 93 14 8 7 12 27 10 52 l-3 41
-3663 3 c-3127 2 -3663 0 -3668 -12z m560 -122 c9 -8 16 -24 16 -34 0 -19 -25
-50 -40 -50 -14 0 -40 30 -40 46 0 24 19 54 35 54 7 0 21 -7 29 -16z m504 7
c20 -12 21 -209 1 -222 -8 -5 -39 -9 -70 -9 -43 0 -58 -4 -63 -16 -11 -29 -7
-189 6 -202 7 -7 39 -12 74 -12 34 0 64 -4 66 -10 2 -5 1 -56 -2 -112 l-5
-103 -53 -3 c-69 -4 -86 9 -79 60 8 56 -12 72 -79 64 -64 -7 -89 10 -80 56 10
50 0 58 -68 58 -35 0 -67 5 -74 12 -17 17 -16 184 1 195 6 4 38 6 69 5 49 -3
58 0 68 18 6 12 8 34 5 51 -10 46 7 59 81 59 68 0 89 15 78 57 -3 12 -1 30 5
42 9 17 21 21 59 21 26 0 53 -4 60 -9z m340 0 c8 -5 14 -21 14 -37 1 -71 3
-74 67 -74 69 0 83 -12 80 -67 -2 -21 1 -44 5 -51 9 -15 274 -16 292 -1 7 6
10 25 7 49 -8 57 7 70 78 70 54 0 59 2 65 25 3 14 4 31 1 37 -2 7 -1 23 4 36
7 18 16 22 53 22 77 0 76 1 76 -121 0 -122 5 -116 -90 -121 l-45 -3 0 -110 0
-110 65 -5 65 -5 0 -110 0 -110 -60 0 -60 0 -3 50 c-4 68 -15 78 -73 71 -55
-7 -81 10 -79 53 5 65 14 61 -150 61 -164 0 -154 4 -151 -60 2 -44 -13 -55
-73 -53 -65 3 -74 -5 -78 -72 l-3 -50 -60 0 -60 0 0 110 0 110 65 5 65 5 0
110 0 110 -65 5 -65 5 -3 109 c-2 81 1 112 10 118 17 10 89 10 106 -1z m333
-1 c28 -16 26 -68 -3 -79 -33 -12 -58 4 -58 37 0 27 16 52 33 52 4 0 17 -5 28
-10z m1677 1 c8 -4 12 -19 10 -32 -2 -20 -10 -25 -43 -29 -37 -5 -40 -8 -45
-40 -5 -32 -8 -35 -45 -40 -38 -5 -40 -7 -43 -42 -3 -39 -7 -41 -67 -50 -19
-3 -20 -11 -20 -113 l0 -110 40 -5 c37 -5 40 -7 43 -40 4 -39 17 -52 48 -44
24 6 41 -11 46 -46 2 -21 10 -26 43 -30 37 -5 40 -7 40 -35 l0 -30 -133 -3
-132 -3 -81 62 c-44 33 -78 66 -76 72 2 6 14 14 28 17 l24 6 0 149 0 150 -32
3 c-21 2 -33 9 -33 18 0 19 148 199 175 212 24 13 235 15 253 3z m777 -18 c15
-16 52 -58 81 -95 30 -37 58 -70 64 -73 5 -3 10 -15 10 -25 0 -14 -8 -20 -32
-22 l-33 -3 0 -150 0 -149 24 -6 c14 -3 26 -11 28 -17 2 -6 -32 -39 -76 -72
l-81 -62 -132 3 -133 3 0 30 c0 28 3 30 40 35 33 4 41 9 43 30 5 32 21 51 41
49 43 -4 50 1 53 39 3 35 5 37 43 42 l40 5 0 110 0 110 -30 3 c-40 5 -53 17
-57 55 -3 29 -7 32 -38 35 -38 4 -50 15 -50 49 0 22 -9 27 -65 35 -24 4 -33
47 -13 59 7 5 65 9 129 9 114 0 117 -1 144 -27z m1120 11 c11 -11 14 -25 10
-41 -12 -50 1 -63 64 -63 31 0 62 -5 69 -12 7 -7 12 -33 12 -59 0 -33 5 -49
16 -53 9 -3 73 -6 144 -6 144 0 157 5 147 64 -8 51 8 65 78 68 l60 3 5 55 5
55 39 3 c85 7 86 6 86 -118 0 -124 5 -117 -90 -122 l-45 -3 0 -110 0 -110 65
-5 65 -5 0 -110 0 -110 -60 0 -60 0 -3 50 c-4 67 -15 78 -71 71 -56 -8 -73 2
-73 40 -1 79 9 75 -156 72 l-147 -3 -3 -47 c-4 -57 -22 -71 -80 -62 -51 8 -74
-13 -70 -67 1 -22 -3 -44 -9 -50 -5 -5 -34 -9 -64 -7 l-54 3 0 110 0 110 65 5
65 5 3 113 3 112 -59 0 c-32 0 -63 5 -70 12 -16 16 -16 200 0 216 18 18 94 15
113 -4z m343 4 c19 -19 15 -66 -7 -78 -38 -20 -57 1 -51 55 3 33 36 45 58 23z
m730 -1 c6 -7 12 -33 14 -57 l3 -45 65 -3 c35 -2 70 -8 77 -14 7 -6 13 -32 13
-59 0 -55 7 -59 83 -57 27 0 53 -4 58 -9 5 -5 8 -52 7 -104 l-3 -94 -70 -5
-70 -5 -3 -45 c-2 -25 -8 -49 -13 -55 -6 -5 -40 -10 -77 -10 l-67 0 -5 -60 -5
-60 -65 0 -65 0 -3 113 -3 112 65 0 c39 0 68 5 72 12 6 9 9 171 5 211 -1 4
-30 7 -65 7 -36 0 -68 5 -72 11 -12 19 -4 213 9 221 20 13 104 9 115 -5z m450
1 c7 -7 12 -24 12 -40 0 -50 -64 -61 -76 -13 -12 47 33 84 64 53z m-5624 -14
c11 -30 6 -121 -7 -133 -22 -17 -27 -3 -27 76 0 56 3 73 14 73 8 0 17 -7 20
-16z m1051 -7 c4 -13 5 -45 3 -73 -2 -37 -7 -50 -20 -52 -16 -3 -18 5 -18 66
0 38 3 72 7 75 12 13 23 7 28 -16z m213 10 c6 -7 12 -33 14 -57 l3 -45 75 -5
75 -5 3 -57 3 -58 63 0 c42 0 67 -5 75 -14 8 -9 11 -47 9 -107 l-3 -94 -70 -5
-70 -5 -3 -45 c-4 -56 -22 -72 -73 -64 -21 4 -49 4 -63 0 -23 -6 -25 -12 -28
-64 l-3 -57 -65 0 -65 0 0 110 0 110 62 3 c36 2 66 8 73 16 7 9 10 50 8 112
l-3 99 -50 3 c-100 5 -95 -2 -95 121 0 59 3 111 7 114 12 12 110 7 121 -6z
m2510 -101 c2 -81 -1 -112 -10 -118 -7 -4 -36 -7 -64 -6 -28 1 -56 -2 -62 -6
-17 -10 -16 -200 1 -214 7 -6 40 -12 72 -14 l60 -3 0 -110 0 -110 -59 -3 c-69
-4 -76 2 -76 70 0 43 -3 48 -25 54 -14 4 -43 4 -64 0 -51 -8 -69 8 -73 64 l-3
45 -65 3 c-36 2 -68 8 -72 15 -13 21 -9 183 5 195 7 6 40 12 72 14 l60 3 5 55
5 55 75 5 75 5 3 45 c5 63 15 71 81 68 l56 -3 3 -109z m120 44 c4 -77 -2 -97
-23 -80 -15 13 -21 102 -9 135 13 33 29 6 32 -55z m1066 54 c9 -24 7 -117 -3
-133 -18 -29 -31 2 -31 75 0 57 3 74 14 74 8 0 17 -7 20 -16z m-2404 -119 c7
-8 10 -25 6 -39 -7 -30 8 -43 54 -48 l35 -3 0 -125 0 -125 -35 -3 c-41 -4 -63
-20 -55 -39 2 -8 0 -23 -5 -34 -10 -17 -22 -19 -114 -19 -112 0 -122 4 -128
55 -3 27 -7 31 -43 35 l-40 5 0 125 0 125 40 5 c37 5 40 7 43 40 6 56 14 60
127 60 79 0 105 -3 115 -15z m2410 -205 c0 -45 -18 -79 -33 -63 -4 3 -7 32 -7
63 0 31 3 60 7 63 15 16 33 -18 33 -63z m-4964 36 c10 -41 1 -91 -18 -94 -16
-3 -18 5 -18 57 0 47 3 61 15 61 8 0 17 -11 21 -24z m1049 -36 c0 -44 -3 -55
-17 -58 -16 -3 -18 5 -18 58 0 53 2 61 18 58 14 -3 17 -14 17 -58z m2845 -1
c0 -52 -2 -60 -17 -57 -32 6 -29 118 2 118 12 0 15 -14 15 -61z m-3890 -268
c0 -60 -11 -88 -29 -77 -12 8 -16 138 -4 149 16 17 33 -19 33 -72z m3890 -1
c0 -68 -13 -97 -31 -69 -13 21 -11 123 3 137 20 20 28 2 28 -68z m1064 64 c9
-24 7 -117 -3 -133 -18 -28 -31 1 -31 68 0 37 3 71 7 74 11 11 20 8 27 -9z
m-3909 -64 c0 -54 -3 -65 -17 -68 -16 -3 -18 5 -18 68 0 63 2 71 18 68 14 -3
17 -14 17 -68z m-1692 -11 c5 -9 7 -28 3 -42 -5 -21 -12 -27 -35 -27 -29 0
-41 15 -41 49 0 39 52 54 73 20z m1176 7 c7 -8 11 -27 9 -43 -3 -25 -7 -28
-38 -28 -31 0 -35 3 -38 28 -4 32 13 57 38 57 10 0 23 -6 29 -14z m3916 -31
c0 -38 -2 -40 -30 -40 -26 0 -30 4 -33 28 -5 44 4 59 35 55 25 -3 28 -7 28
-43z m1180 0 c0 -37 -2 -40 -29 -43 -31 -4 -46 10 -46 44 0 28 20 45 50 42 22
-3 25 -8 25 -43z"/>
<path d="M6474 11617 c-2 -7 -3 -58 -2 -113 l3 -99 90 0 90 0 0 110 0 110 -88
3 c-66 2 -89 0 -93 -11z"/>
<path d="M13623 11613 c-18 -7 -18 -204 -1 -221 16 -16 164 -16 174 -1 9 14 8
204 -1 218 -6 11 -148 14 -172 4z"/>
<path d="M6474 10903 c-4 -14 -2 -33 3 -42 9 -15 329 -16 3653 -16 2003 0
3645 2 3649 5 15 10 21 42 11 61 -11 19 -67 19 -3660 19 l-3650 0 -6 -27z"/>
<path d="M9781 10782 c-2564 -1 -3277 -5 -3289 -14 -13 -11 -14 -387 -8 -3113
3 -1705 9 -3140 12 -3190 21 -326 112 -709 211 -880 49 -86 207 -322 281 -420
442 -585 1006 -1024 1642 -1277 353 -141 650 -218 1135 -295 148 -23 556 -23
772 1 488 53 905 172 1313 376 52 26 119 61 148 79 29 17 55 31 57 31 11 0
272 174 349 232 324 244 623 548 872 885 136 183 254 370 304 482 152 338 175
395 218 556 l27 100 3 3219 c2 2582 0 3221 -10 3228 -7 5 -182 7 -388 6 -206
-2 -1848 -4 -3649 -6z m404 -197 c1914 -4 3483 -9 3488 -12 10 -6 9 -5985 -2
-5981 -4 2 -31 30 -58 63 -48 57 -488 570 -539 628 -32 35 -37 32 -140 -95
-281 -348 -661 -797 -674 -797 -8 -1 -35 25 -60 56 -25 31 -85 104 -135 163
-49 59 -153 183 -230 276 -318 384 -356 426 -373 412 -8 -7 -97 -110 -196
-228 -437 -519 -520 -615 -535 -617 -9 -2 -41 28 -76 71 -189 232 -658 786
-664 786 -4 0 -28 -24 -52 -52 -262 -315 -632 -748 -638 -748 -4 0 -72 77
-152 172 -79 94 -164 195 -189 223 -25 28 -88 103 -140 165 -202 242 -202 241
-221 227 -10 -6 -91 -97 -180 -202 -401 -470 -501 -585 -508 -585 -4 0 -63 66
-132 147 -345 409 -417 494 -477 566 -43 52 -71 77 -82 75 -16 -3 -102 -112
-500 -638 -36 -47 -68 -86 -72 -88 -4 -2 -9 -4 -12 -5 -2 -1 -7 1351 -11 3004
-7 2937 -7 3007 11 3018 11 6 30 9 44 6 14 -2 1591 -7 3505 -10z m-2735 -5945
c101 -124 199 -242 217 -263 18 -20 33 -43 33 -50 -1 -6 -59 -88 -130 -182
-72 -93 -130 -175 -130 -182 0 -10 49 -13 226 -13 128 0 233 4 244 10 10 5 74
78 141 162 132 163 518 638 550 676 13 15 24 20 33 15 24 -13 377 -486 372
-498 -2 -6 -58 -86 -125 -178 -67 -91 -121 -171 -121 -177 0 -11 506 -15 534
-4 9 4 132 150 274 327 387 481 432 537 441 537 7 0 130 -145 616 -727 88
-105 165 -194 171 -197 7 -2 118 -8 248 -12 213 -6 236 -5 236 9 0 9 -47 91
-105 183 -58 91 -105 174 -105 183 0 15 355 499 399 544 17 17 18 17 38 0 11
-10 187 -219 391 -464 l370 -446 167 -6 c212 -9 340 -9 348 -1 9 9 0 24 -103
170 -49 71 -90 134 -90 139 0 6 29 49 64 96 35 46 136 181 224 301 88 119 165
218 169 221 15 9 25 -3 131 -148 56 -77 176 -241 267 -365 91 -123 165 -231
165 -238 0 -31 -73 -230 -115 -314 -55 -110 -161 -275 -186 -288 -11 -7 -1151
-10 -3163 -10 l-3145 0 -33 29 c-68 60 -256 461 -282 602 -8 44 -16 32 312
467 136 182 249 322 256 320 7 -2 96 -104 196 -228z m2716 -1310 c2628 0 3034
-2 3034 -14 0 -29 -149 -229 -257 -346 -38 -41 -111 -112 -163 -158 l-95 -85
-2544 7 -2544 7 -61 48 c-129 103 -274 267 -390 443 -54 81 -64 117 -29 104 8
-3 1380 -6 3049 -6z"/>
<path d="M7166 10211 c-3 -5 -6 -941 -6 -2081 l0 -2071 21 -72 c25 -82 87
-169 134 -188 20 -8 160 -15 422 -21 l393 -8 60 30 c69 35 106 79 157 187 l33
73 0 2071 c0 1139 -3 2075 -6 2080 -7 13 -371 11 -395 -1 -19 -11 -19 -44 -19
-2028 0 -1556 -3 -2021 -12 -2030 -8 -8 -61 -12 -175 -12 -150 0 -163 1 -173
19 -7 13 -10 665 -10 2034 0 1828 -1 2015 -16 2021 -25 10 -402 7 -408 -3z"/>
<path d="M8855 10211 c-3 -6 -5 -1003 -5 -2217 0 -1609 3 -2210 11 -2215 19
-11 353 2 362 15 5 6 5 500 1 1097 -4 793 -3 1088 5 1093 6 4 11 6 11 4 0 -13
65 -353 94 -498 20 -96 57 -278 82 -405 25 -126 53 -268 64 -315 20 -93 74
-362 149 -739 30 -151 53 -246 62 -252 18 -12 300 1 317 14 17 14 18 4397 0
4415 -8 8 -63 12 -180 12 l-168 0 -6 -27 c-4 -14 -4 -574 0 -1245 4 -670 5
-1218 2 -1218 -11 0 -25 48 -46 158 -19 94 -48 235 -95 452 -8 36 -35 164 -61
285 -65 312 -112 536 -134 640 -37 171 -91 431 -115 550 -38 185 -83 384 -90
395 -8 13 -252 13 -260 1z"/>
<path d="M10417 10213 c-4 -3 -7 -999 -7 -2213 0 -1702 3 -2209 12 -2218 19
-19 372 -17 391 3 13 12 14 124 13 797 -1 431 0 789 2 796 3 8 29 12 87 12 69
0 90 -4 130 -26 94 -49 136 -98 173 -198 22 -58 22 -63 22 -719 0 -525 2 -662
12 -669 17 -10 369 -10 386 0 10 7 12 144 10 693 -3 638 -4 687 -22 733 -29
80 -93 172 -146 212 -28 21 -50 42 -50 46 0 5 12 18 27 31 57 46 100 98 143
174 l45 78 3 1060 c2 1025 2 1062 -17 1137 -22 87 -58 146 -125 205 -82 72
-89 73 -615 73 -257 0 -471 -3 -474 -7z m731 -405 c30 -14 49 -33 65 -62 l22
-41 3 -911 3 -910 -22 -27 -21 -27 -185 2 -186 3 1 987 c0 543 3 992 7 998 4
7 54 10 138 10 111 -1 139 -5 175 -22z"/>
<path d="M12134 10196 c-33 -16 -58 -36 -73 -59 -53 -86 -51 -15 -49 -2179 3
-1956 4 -2004 23 -2056 21 -59 62 -96 135 -124 40 -16 87 -18 432 -18 357 0
390 1 430 19 58 25 93 66 112 130 13 44 16 117 16 414 1 198 -3 364 -8 369 -5
5 -82 7 -173 6 l-164 -3 -5 -303 c-5 -286 -6 -304 -24 -318 -15 -11 -58 -14
-183 -14 -150 0 -165 2 -183 20 -20 20 -20 29 -18 1910 3 1745 4 1891 20 1906
14 14 40 16 194 15 97 -1 182 -4 187 -8 6 -4 7 -114 3 -314 -7 -302 -7 -308
13 -318 20 -11 324 -11 335 0 3 3 6 165 6 360 1 442 -3 461 -122 557 l-41 32
-406 -1 c-403 0 -406 0 -457 -23z"/>
</g>
</svg>
